<?xml version="1.0" encoding="UTF-8"?>
<svg version="1.1" xmlns="http://www.w3.org/2000/svg" width="98" height="96">
<path d="M0 0 C1.60608717 1.22062625 3.19058913 2.47028042 4.75 3.75 C5.46027344 4.32363281 6.17054687 4.89726562 6.90234375 5.48828125 C15.26761704 12.98652046 20.86061262 24.61866839 21.95117188 35.81542969 C22.05198564 37.92362348 22.0793915 40.01452766 22.0625 42.125 C22.05686035 42.86959473 22.0512207 43.61418945 22.04541016 44.38134766 C21.76498016 57.13952413 16.33639054 68.61414031 7.671875 77.96875 C4.33592238 81.06060853 0.66101503 83.45066699 -3.25 85.75 C-4.301875 86.36875 -5.35375 86.9875 -6.4375 87.625 C-9.59323041 88.88729216 -11.88082824 89.06341133 -15.25 88.75 C-15.58 88.42 -15.91 88.09 -16.25 87.75 C-16.24242099 84.25228907 -16.17220728 80.76628557 -16.03515625 77.27148438 C-15.93959766 72.26334572 -16.67895452 69.18538997 -19.25 64.75 C-19.25 64.09 -19.25 63.43 -19.25 62.75 C-18.693125 62.66363281 -18.13625 62.57726562 -17.5625 62.48828125 C-11.06048426 61.29111957 -5.07707286 59.41865813 -0.8984375 53.99609375 C2.25079405 48.38864909 3.73630622 41.72170288 2.16796875 35.40625 C1.19793948 32.76853495 0.0061905 30.26238099 -1.25 27.75 C-1.47950319 25.545636 -1.66075933 23.33607827 -1.8125 21.125 C-1.89628906 19.93648437 -1.98007813 18.74796875 -2.06640625 17.5234375 C-2.12699219 16.60820312 -2.18757813 15.69296875 -2.25 14.75 C-7.15789317 15.16249436 -7.15789317 15.16249436 -11.47265625 17.31640625 C-15.23280116 19.2572968 -18.42922764 18.80206664 -22.5 18.375 C-27.2367854 17.9629525 -31.59877285 17.58721297 -36.3125 18.4375 C-40.76145379 18.79059157 -42.62407673 18.02139755 -46.328125 15.7578125 C-48.60156566 14.5656424 -50.7275878 14.15880474 -53.25 13.75 C-53.20359375 14.6678125 -53.1571875 15.585625 -53.109375 16.53125 C-52.91071286 23.28576292 -52.87228571 28.13111693 -56.34765625 33.96875 C-58.72550785 38.66269082 -57.353808 44.00566409 -56.1875 48.875 C-54.45991414 54.05775757 -52.07091474 57.13687448 -47.25 59.75 C-43.63124865 61.03093083 -40.00771317 61.97535388 -36.25 62.75 C-38 69.5 -38 69.5 -40.25 71.75 C-44.61846063 72.48808961 -48.20092143 72.39375276 -52 70.0625 C-53.11375 68.9178125 -53.11375 68.9178125 -54.25 67.75 C-55.178125 66.8425 -56.10625 65.935 -57.0625 65 C-57.784375 64.2575 -58.50625 63.515 -59.25 62.75 C-59.58 63.08 -59.91 63.41 -60.25 63.75 C-59.486875 64.636875 -58.72375 65.52375 -57.9375 66.4375 C-55.73316849 69.06526242 -54.01484369 71.80859385 -52.25 74.75 C-49.68106162 76.03446919 -47.48423663 76.07977144 -44.625 76.3125 C-42.85125 76.456875 -41.0775 76.60125 -39.25 76.75 C-39.25 80.71 -39.25 84.67 -39.25 88.75 C-50.04947643 88.40162979 -57.68040204 83.28218827 -65.0703125 75.58984375 C-75.42651751 62.09708203 -77.4259544 48.32230559 -76.25 31.75 C-74.77384251 23.6859625 -71.22583815 17.1836503 -66.25 10.75 C-65.74855469 10.06164062 -65.24710938 9.37328125 -64.73046875 8.6640625 C-49.72640527 -10.39219331 -19.57831504 -12.92405388 0 0 Z " fill="#DBD6D0" transform="translate(76.25,7.25)"/>
</svg>
